PathFileType	4	(X/Y/Z)	RBDS025\RBDS025runT25.trc
DataRate	CameraRate	NumFrames	NumMarkers	Units	OrigDataRate	OrigDataStartFrame	OrigNumFrames
150.000000	150.000000	4	33	mm	150.000000	1125	4500
Frame#	Time	L.ASIS			L.Heel.Bottom			L.Heel.Lateral			L.Heel.Top			L.Iliac.Crest			L.MT1			L.MT5			L.PSIS			L.Shank.Bottom.Lateral			L.Shank.Bottom.Medial			L.Shank.Top.Lateral			L.Shank.Top.Medial			L.Thigh.Bottom.Lateral			L.Thigh.Bottom.Medial			L.Thigh.Top.Lateral			L.Thigh.Top.Medial			R.ASIS			R.ASY			R.Heel.Bottom			R.Heel.Lateral			R.Heel.Top			R.Iliac.Crest			R.MT1			R.MT5			R.PSIS			R.Shank.Bottom.Lateral			R.Shank.Bottom.Medial			R.Shank.Top.Lateral			R.Shank.Top.Medial			R.Thigh.Bottom.Lateral			R.Thigh.Bottom.Medial			R.Thigh.Top.Lateral			R.Thigh.Top.Medial			
		X1	Y1	Z1	X2	Y2	Z2	X3	Y3	Z3	X4	Y4	Z4	X5	Y5	Z5	X6	Y6	Z6	X7	Y7	Z7	X8	Y8	Z8	X9	Y9	Z9	X10	Y10	Z10	X11	Y11	Z11	X12	Y12	Z12	X13	Y13	Z13	X14	Y14	Z14	X15	Y15	Z15	X16	Y16	Z16	X17	Y17	Z17	X18	Y18	Z18	X19	Y19	Z19	X20	Y20	Z20	X21	Y21	Z21	X22	Y22	Z22	X23	Y23	Z23	X24	Y24	Z24	X25	Y25	Z25	X26	Y26	Z26	X27	Y27	Z27	X28	Y28	Z28	X29	Y29	Z29	X30	Y30	Z30	X31	Y31	Z31	X32	Y32	Z32	X33	Y33	Z33	

1126	7.500000000000001	2238.952483975477	941.7780659832932	867.3242445257947	1609.179803045655	255.3519258323148	885.3046147053266	1641.594213120994	239.8047722998344	842.3078035172452	1650.777370289177	272.3270398741842	882.6326869153547	2190.669982307351	1029.14040775648	818.8255519130207	1738.16709813772	94.3353718666549	931.8384050426068	1714.897622791153	104.1948684511729	821.91156030286	2086.968080615999	1021.048359866655	915.4462115156111	1770.322544559753	293.2815386214097	825.499905551251	1733.179029575524	327.3149177759971	849.2659282797952	1818.461938931738	356.3813207081047	812.1867328523746	1781.960942061789	390.3380008206369	833.0068142573964	2039.102738320822	633.0740440016648	803.5277499417376	1977.463361857591	655.338097827641	835.209057879514	2068.13282308536	737.0295874072035	790.0162175563403	2012.117948164615	758.3521733089292	826.4892138721439	2241.749643395782	961.4205930842002	1067.59679554476	2453.196321992911	137.7124665178555	1027.293694090445	2307.1875221465	23.38497386813478	978.7578961444401	2317.432329320531	46.31464960466877	1025.574643301146	2297.612994285672	66.94726764399883	984.8151130665091	2183.455640179078	1031.158533520226	1113.163744297523	2499.171250506301	121.2017961859198	983.7919252650995	2462.256882236306	81.74164261930247	1082.796106560316	2084.841242850259	1019.79107922552	1019.556142615605	2317.862615632026	202.6070854361431	1063.313637469666	2280.215272974268	202.3925525159734	1028.013500761671	2297.319648828046	282.6292165608174	1082.323722022789	2258.78708165654	278.6830247176705	1045.135433546069	2251.317018368844	603.8729517867591	1116.219104304626	2193.212644582701	584.1662129762016	1080.002939126331	2205.399127551397	701.9938566520328	1136.94512081746	2150.008068950306	682.0467746606694	1102.676928828431	
1127	7.506666666666667	2239.653590664803	939.9617990296542	867.5729562627563	1602.459800571629	264.4485002591923	880.7948079972489	1635.213692509064	247.5239372574293	838.5507777853558	1644.589777060085	280.1435984616332	878.717238228296	2189.982042515998	1027.751095092703	819.0006561446589	1726.25557683205	100.4047628610616	931.1606107082545	1705.100054898117	109.6340023513495	820.6605227570275	2087.418520474567	1018.940569521077	915.8616024381839	1765.725423479013	297.0864624552262	823.8141273659148	1729.244713682267	332.4684511401359	846.6433961895723	1816.086798135877	358.502545931269	810.9952711597815	1780.273571594715	393.7937422765748	830.8780418376042	2041.844167290445	629.984280319483	803.9859744293019	1979.756077981989	652.2619266224737	834.8193098507057	2070.756354959881	733.9529589358038	790.1266510983367	2014.117495207272	755.2961307807215	825.6899557752188	2242.314118848038	958.9578129982203	1067.972526770577	2456.816772329098	136.417740749902	1027.339137458291	2311.661246791581	21.85067136370708	977.3167885790538	2321.384574485066	44.92921721384587	1024.180407475504	2302.133424330901	65.33209219418187	983.0587942421531	2184.183260627702	1027.930592337845	1113.584857023067	2503.324029529525	119.7944064375291	984.466723375921	2465.151911364397	80.54770657602428	1082.976819585583	2085.236661845441	1017.124890321643	1020.018267774966	2320.698608637813	200.1027843291033	1062.358510127732	2283.296708136667	199.6495954317486	1026.733785865333	2299.418403248967	279.9260073587315	1081.412488690785	2261.224315706497	275.7586941628686	1043.877333460001	2251.610452660449	600.8895607810711	1116.218919190447	2193.889606386651	581.2052070481008	1079.515808144382	2205.637744773398	698.7620297505015	1137.140296774506	2150.442165618934	678.9520800476128	1102.390122055695	
1128	7.513333333333334	2240.37433313837	937.7209769892208	867.8691945147896	1596.6380652186	273.7252833216033	876.5685026828304	1629.488524674765	255.3753677768703	835.0040107822346	1639.277698850562	287.9990375828311	875.0208866120003	2189.228594324643	1025.919437597272	819.1630801181204	1714.816134817514	106.6418772169579	930.4867835280187	1695.524061528926	115.2551251763644	819.4428208109057	2087.807252933699	1016.240983110733	916.2299714801009	1761.725038366743	300.7096464751804	822.1848333522745	1726.138072311616	337.4576628864315	844.2596281390564	1814.414094028354	360.2473849471821	809.8644053852584	1779.486870185255	396.9017679177306	828.9910795206163	2045.211859650123	625.9626661130205	804.3501350950064	1982.621735831122	647.9523317286083	834.4289145355652	2073.595348784347	730.0730386278979	790.2946179376197	2016.262787577402	751.1554572615423	824.9924367880431	2242.850460466654	956.1818090687843	1068.44589927265	2457.885972659208	133.6967966353976	1027.228183807879	2312.339959473847	20.74324480760136	976.0816995402904	2321.862738615269	43.92283883427296	1022.916857863922	2303.437493521003	64.1999343321437	981.3827431515294	2184.887406555888	1024.36528598507	1113.993446716203	2504.633443106644	116.2851269155116	984.938892247335	2464.879542613317	78.07390891551817	1083.103620439771	2085.529450615696	1013.975963599621	1020.427880532369	2321.656529404355	197.3764273606643	1061.40059479001	2284.395861379913	196.9620927408455	1025.587436902232	2300.292302297763	277.1592482489441	1080.492233609598	2262.29769222432	273.0292542308586	1042.738417611397	2252.386521193154	597.835930141663	1116.064532760934	2194.999180358669	578.0312777731519	1079.017461203604	2206.210865899344	695.4253811748447	1137.143760386404	2151.174841001752	675.5990183914126	1102.066712929535	
1129	7.52	2241.116310578856	935.0687719598089	868.2038487496599	1591.940178572665	283.2191723256797	872.7428587550992	1624.581203711854	263.4159832034039	831.7366204714032	1635.060333904554	295.9091228680962	871.6208747342778	2188.483571439927	1023.58929984942	819.3082323545514	1704.00472252347	113.0001249804048	929.7534627189858	1686.2288369668	121.0992910026206	818.2373002478297	2088.127226940131	1012.942125563286	916.5207670931393	1758.42091912619	304.1853845807661	820.6003305457479	1723.953621882308	342.271448111065	842.1452504244196	1813.491605296527	361.674798239222	808.7781149285454	1779.64136990207	399.676842995845	827.3701469387408	2049.108195115036	621.1091628895501	804.6108656562336	1986.00446963926	642.5166913423695	834.0995814782801	2076.559565247891	725.478292758876	790.5113193952328	2018.519928918256	746.025743033714	824.4615748827363	2243.349342670985	953.141714610359	1068.999563161095	2456.484232984038	129.6155198850884	1026.884668365428	2309.342242694095	20.03007465365078	975.0768363099758	2319.010071361622	43.24029762691464	1021.813586597028	2301.594871757705	63.511832800984	979.8600999641785	2185.541013198274	1020.531295138878	1114.377864987425	2503.15498698752	110.8185459830706	985.0644862620343	2461.647514647104	74.38935886093796	1083.080347627296	2085.70798913073	1010.379012580352	1020.748236976175	2320.830092017777	194.4520281327787	1060.475736717273	2283.580018829142	194.3508029187839	1024.646170582696	2300.029460399504	274.3466381811115	1079.620924286608	2262.062166269376	270.5083090910435	1041.814159221584	2253.61740726379	594.7427221304436	1115.796021082514	2196.49189087824	574.6807297966171	1078.574480514587	2207.110500426121	692.0355789366549	1136.979212180094	2152.184000363874	672.0336240122198	1101.765066230628	
